# AST/ASF file generated using VICON BodyLanguage
# -----------------------------------------------
:version 1.10
:name VICON
:units
  mass 1.0
  length 0.45
  angle deg
:documentation
   .ast/.asf automatically generated from VICON data using
   VICON BodyBuilder and BodyLanguage model FoxedUp or BRILLIANT.MOD
:root
   order TX TY TZ RX RY RZ
   axis XYZ
   position 0 0 0  
   orientation 0 0 0 
:bonedata
  begin
     id 1 
     name lhipjoint
     direction 0.643272 -0.706573 0.294883 
     length 2.58915 
     axis 0 0 0  XYZ
  end
  begin
     id 2 
     name lfemur
     direction 0.34202 -0.939693 0  
     length 7.06802  
     axis 0 0 20  XYZ
    dof rx ry rz
    limits (-160.0 20.0)
           (-70.0 70.0)
           (-60.0 70.0)
  end
  begin
     id 3 
     name ltibia
     direction 0.34202 -0.939693 0   
     length 7.94147   
     axis 0 0 20   XYZ
    dof rx
    limits (-10.0 170.0)
  end
  begin
     id 4 
     name lfoot
     direction 0.0435058 -0.119531 0.991877   
     length 1.8399   
     axis -90 7.62852e-016 20   XYZ
    dof rx rz
    limits (-45.0 90.0)
           (-70.0 20.0)
  end
  begin
     id 5 
     name ltoes
     direction 1.53505e-011 -4.22157e-011 1   
     length 0.934412   
     axis -90 7.62852e-016 20   XYZ
    dof rx
    limits (-90.0 20.0)
  end
  begin
     id 6 
     name rhipjoint
     direction -0.636801 -0.711547 0.296959   
     length 2.57105  
     axis 0 0 0  XYZ 
  end
  begin
     id 7 
     name rfemur
     direction -0.34202 -0.939693 0   
     length 7.03285   
     axis 0 0 -20   XYZ
    dof rx ry rz
    limits (-160.0 20.0)
           (-70.0 70.0)
           (-70.0 60.0)
  end
  begin
     id 8 
     name rtibia
     direction -0.34202 -0.939693 0   
     length 7.99111   
     axis 0 0 -20   XYZ
    dof rx
    limits (-10.0 170.0)
 end
 begin
     id 9 
     name rfoot
     direction -0.0783088 -0.215152 0.973436   
     length 1.98785  
     axis -90 -7.62852e-016 -20   XYZ
    dof rx rz
    limits (-45.0 90.0)
           (-20.0 70.0)
  end
  begin
     id 10 
     name rtoes
     direction -1.53606e-011 -4.21943e-011 1   
     length 1.001   
     axis -90 -7.62852e-016 -20   XYZ
    dof rx
    limits (-90.0 20.0)
  end
  begin
     id 11 
     name lowerback
     direction 0.00141527 0.998403 -0.0564763   
     length 2.30486   
     axis 0 0 0   XYZ
    dof rx ry rz
    limits (-20.0 45.0)
           (-30.0 30.0)
           (-30.0 30.0)
  end
  begin
     id 12 
     name upperback
     direction 0.0125137 0.999915 0.00361315   
     length 2.30697   
     axis 0 0 0   XYZ
    dof rx ry rz
    limits (-20.0 45.0)
           (-30.0 30.0)
           (-30.0 30.0)
  end
  begin
     id 13 
     name thorax
     direction 0.0136417 0.999471 0.0295116   
     length 2.31005   
     axis 0 0 0   XYZ
    dof rx ry rz
    limits (-20.0 45.0)
           (-30.0 30.0)
           (-30.0 30.0)
  end
  begin
     id 14 
     name lowerneck
     direction 0.0766806 0.997047 0.00422047   
     length 1.68825   
     axis 0 0 0   XYZ
    dof rx ry rz
    limits (-20.0 45.0)
           (-30.0 30.0)
           (-30.0 30.0)
  end
  begin
     id 15 
     name upperneck
     direction -0.143512 0.985106 -0.0947088   
     length 1.69772   
     axis 0 0 0   XYZ
    dof rx ry rz
    limits (-20.0 45.0)
           (-30.0 30.0)
           (-30.0 30.0)
  end
  begin
     id 16
     name head
     direction -0.0539128 0.997849 -0.0372864  
     length 1.71187  
     axis 0 0 0   XYZ
    dof rx ry rz
    limits (-20.0 45.0)
           (-30.0 30.0)
           (-30.0 30.0)
  end
  begin
     id 17 
     name lclavicle
     direction 0.978251 0.207416 -0.00165765  
     length 3.35399  
     axis 0 0 0   XYZ
    dof ry rz
    limits (-20.0 10.0)
           (0.0 20.0)
  end
  begin
     id 18 
     name lhumerus
     direction 1 -4.48966e-011 -1.32191e-028   
     length 5.70706   
     axis 180 -30 -90   XYZ
    dof rx ry rz
    limits (-60.0 90.0)
           (-90.0 90.0)
           (-90.0 90.0)
  end
  begin
     id 19
     name lradius
     direction 1 -4.48976e-011 9.36106e-027   
     length 3.33243   
     axis 180 -30 -90   XYZ
    dof rx
    limits (-10.0 170.0)
  end
  begin
     id 20
     name lwrist
     direction 1 -4.48976e-011 1.1555e-026   
     length 1.66621   
     axis -5.7412e-015 90 90   XYZ
    dof ry
    limits (-180.0 0.0)
 end
  begin
     id 21 
     name lhand
     direction 1 -4.48939e-011 2.31113e-026   
     length 0.792687   
     axis -1.47463e-014 90 90   XYZ
    dof rx rz
    limits (-90.0 90.0)
           (-45.0 45.0)
  end
  begin
     id 22 
     name lfingers
     direction 1 -4.48866e-011 4.62274e-026   
     length 0.639085   
     axis -2.94925e-014 90 90   XYZ
    dof rx
    limits (0.0 90.0)
  end
  begin
     id 23
     name lthumb
     direction 0.707107 -6.34847e-011 0.707107   
     length 0.917601   
     axis -90 45 -6.68868e-015   XYZ
    dof rx rz
    limits (-45.0 45.0)
           (-45.0 45.0)
  end
  begin
     id 24 
     name rclavicle
     direction -0.981813 0.185514 0.0403428   
     length 3.47271  
     axis 0 0 0   XYZ 
    dof ry rz
    limits (-10.0 20.0)
           (-20.0 0.0)
  end
  begin
     id 25 
     name rhumerus
     direction -1 -4.48972e-011 -6.58544e-029  
     length 5.88176   
     axis 180 30 90   XYZ
    dof rx ry rz
    limits (-90.0 60.0)
           (-90.0 90.0)
           (-90.0 90.0)
  end
  begin
     id 26 
     name rradius
     direction -1 -4.48964e-011 8.36306e-027   
     length 3.28156   
     axis 180 30 90   XYZ
    dof rx
    limits (-10.0 170.0)
  end
  begin
     id 27 
     name rwrist
     direction -1 -4.48903e-011 1.15562e-026   
     length 1.64078   
     axis -5.7412e-015 -90 -90   XYZ
    dof ry
    limits (-180.0 0.0)
  end
  begin
     id 28
     name rhand
     direction -1 -4.49055e-011 2.31074e-026   
     length 0.863125   
     axis -1.47463e-014 -90 -90   XYZ
    dof rx rz
    limits (-90.0 90.0)
           (-45.0 45.0)
  end
  begin
     id 29
     name rfingers
     direction -1 -4.48994e-011 4.62188e-026   
     length 0.695873   
     axis -2.94925e-014 -90 -90   XYZ
    dof rx
    limits (0.0 90.0)
  end
  begin
     id 30
     name rthumb
     direction -0.707107 -6.35058e-011 0.707107   
     length 0.999139   
     axis -90 -45 6.68868e-015   XYZ
    dof rx rz
    limits (-45.0 45.0)
           (-45.0 45.0)
  end
:hierarchy
  begin
    root lhipjoint rhipjoint lowerback
    lhipjoint lfemur
    lfemur ltibia
    ltibia lfoot
    lfoot ltoes
    rhipjoint rfemur
    rfemur rtibia
    rtibia rfoot
    rfoot rtoes
    lowerback upperback
    upperback thorax
    thorax lowerneck lclavicle rclavicle
    lowerneck upperneck
    upperneck head
    lclavicle lhumerus
    lhumerus lradius
    lradius lwrist
    lwrist lhand lthumb
    lhand lfingers
    rclavicle rhumerus
    rhumerus rradius
    rradius rwrist
    rwrist rhand rthumb
    rhand rfingers
  end

#!OML:ASF \\Waltz\H\Terrain\Patient Classification 1\Animal2\Wednesday\Animal2.ASF
:FULLY-SPECIFIED
:DEGREES
1840
root -1.20557 17.3115 11.2151 0.768932 -0.693482 -12.55
lowerback 7.48169 -2.15858 7.15741
upperback -2.25796 -1.68332 7.86634
thorax -6.59312 -0.943317 4.54035
lowerneck 8.21991 6.26526 14.931
upperneck -7.66232 8.58424 -21.7642
head -1.90185 4.86716 -9.57527
rclavicle -2.60905e-016 -5.40694e-014
rhumerus 27.2371 44.1633 -37.3013
rradius 89.8778
rwrist -23.8237
rhand -19.6698 19.3942
rfingers 7.12502
rthumb 6.65856 -10.4811
lclavicle -2.60905e-016 -5.40694e-014
lhumerus 26.785 14.4343 16.127
lradius 68.619
lwrist -5.17144
lhand -50.3613 24.0501
lfingers 7.12502
lthumb -22.9358 52.7059
rfemur -9.53739 -7.76467 34.8477
rtibia 36.2103
rfoot -18.4999 8.36237
rtoes 33.144
lfemur -26.353 2.84931 -2.36524
ltibia 62.1509
lfoot -25.3102 -1.05334
ltoes -17.9901
1841
root -1.20475 17.3198 11.2329 0.744495 -0.557233 -12.5343
lowerback 7.06808 -2.24139 7.46058
upperback -2.06858 -1.855 7.56202
thorax -6.16733 -1.04087 4.03162
lowerneck 8.25491 6.19741 15.3016
upperneck -7.75616 8.53134 -21.6703
head -1.93141 4.82953 -9.61435
rclavicle 3.90115e-014 -3.97569e-014
rhumerus 27.2132 43.7859 -38.006
rradius 89.7037
rwrist -23.6022
rhand -19.3401 19.2252
rfingers 7.12502
rthumb 6.97686 -10.6398
lclavicle 3.90115e-014 -3.97569e-014
lhumerus 27.1564 14.6428 15.672
lradius 68.5307
lwrist -4.88168
lhand -50.0045 24.1021
lfingers 7.12502
lthumb -22.5934 52.7999
rfemur -9.41979 -7.71047 34.8512
rtibia 36.1337
rfoot -18.3953 8.10788
rtoes 32.7579
lfemur -26.2721 2.34407 -2.54692
ltibia 61.5399
lfoot -25.2383 -2.08625
ltoes -18.5631
1842
root -1.20052 17.3304 11.2535 0.758792 -0.394536 -12.503
lowerback 7.5039 -2.21804 6.94877
upperback -2.52527 -1.74717 7.95901
thorax -6.88256 -0.967339 4.78362
lowerneck 8.54236 6.01255 15.0371
upperneck -7.18796 8.34057 -21.8666
head -1.86238 4.75611 -9.63471
rclavicle 1.68718e-014 -1.82882e-014
rhumerus 26.8768 44.4142 -37.5145
rradius 89.7775
rwrist -23.6735
rhand -19.0242 18.167
rfingers 7.12502
rthumb 7.28177 -11.6877
lclavicle 1.68718e-014 -1.82882e-014
lhumerus 26.6393 13.9195 15.9146
lradius 68.5222
lwrist -4.24144
lhand -50.4947 23.6556
lfingers 7.12502
lthumb -23.0638 52.2954
rfemur -9.32835 -7.61558 34.8503
rtibia 36.012
rfoot -18.4457 7.60907
rtoes 31.3745
lfemur -26.1041 1.77585 -2.68213
ltibia 60.8025
lfoot -25.02 -2.60717
ltoes -21.2207
1843
root -1.19053 17.3385 11.2802 0.73785 -0.309392 -12.4783
lowerback 7.54589 -2.21834 6.84925
upperback -2.66402 -1.72995 8.08415
thorax -7.0508 -0.952932 4.98445
lowerneck 8.63799 5.90171 14.9107
upperneck -7.0164 8.20124 -21.9338
head -1.86107 4.69489 -9.63767
rclavicle 4.01545e-014 -4.37326e-014
rhumerus 26.8859 44.7042 -37.1357
rradius 89.8342
rwrist -23.9119
rhand -19.1223 17.814
rfingers 7.12502
rthumb 7.18709 -12.044
lclavicle 4.01545e-014 -4.37326e-014
lhumerus 26.589 13.715 16.1648
lradius 68.3971
lwrist -4.12045
lhand -50.8988 23.6165
lfingers 7.12502
lthumb -23.4515 52.2073
rfemur -9.15854 -7.61508 34.7883
rtibia 35.8733
rfoot -18.5401 7.39197
rtoes 30.8564
lfemur -25.7912 1.18212 -2.77675
ltibia 59.9532
lfoot -24.6911 -3.35021
ltoes -23.0167
1844
root -1.17814 17.3474 11.3092 0.788669 -0.307331 -12.4591
lowerback 7.41641 -2.20066 6.9526
upperback -2.74537 -1.70411 8.06677
thorax -7.06885 -0.94573 4.90202
lowerneck 8.66171 5.83096 14.9427
upperneck -6.9332 8.12164 -21.9205
head -1.85668 4.65364 -9.63873
rclavicle -4.5969e-015 4.37326e-014
rhumerus 26.8253 44.8223 -37.02
rradius 89.9596
rwrist -24.1215
rhand -19.3033 18.2195
rfingers 7.12502
rthumb 7.0124 -11.6444
lclavicle -4.5969e-015 4.37326e-014
lhumerus 26.5652 13.5542 16.1625
lradius 68.4167
lwrist -4.03535
lhand -50.45 24.3292
lfingers 7.12502
lthumb -23.0209 52.9744
rfemur -9.04441 -7.47145 34.7405
rtibia 35.7607
rfoot -18.4713 7.46986
rtoes 32.2244
lfemur -25.5237 0.413094 -2.80994
ltibia 59.0275
lfoot -24.2188 -5.07231
ltoes -21.3464
1845
root -1.16658 17.3521 11.3342 0.815988 -0.365454 -12.3827
lowerback 7.26676 -2.19471 6.98832
upperback -2.75329 -1.71319 8.03024
thorax -6.99249 -0.952533 4.83519
lowerneck 8.64195 5.80962 14.9523
upperneck -6.83443 8.10499 -21.9057
head -1.82909 4.64173 -9.6312
rclavicle 1.31943e-014 1.11319e-014
rhumerus 26.928 44.8627 -36.9138
rradius 90.0003
rwrist -24.0284
rhand -19.3163 18.8361
rfingers 7.12502
rthumb 6.99988 -11.0281
lclavicle 1.31943e-014 1.11319e-014
lhumerus 26.5091 13.464 16.0695
lradius 68.4372
lwrist -3.72133
lhand -50.3398 24.6847
lfingers 7.12502
lthumb -22.9152 53.343
rfemur -8.94769 -7.18328 34.6634
rtibia 35.7231
rfoot -18.4386 7.38026
rtoes 33.6575
lfemur -25.2131 -0.436066 -2.83793
ltibia 58.0785
lfoot -23.4447 -6.99622
ltoes -17.6717
1846
root -1.15361 17.3454 11.3534 0.777419 -0.428988 -12.4351
lowerback 7.12846 -2.20235 7.19957
upperback -2.68434 -1.72929 7.99696
thorax -6.84624 -0.96918 4.67122
lowerneck 8.73183 5.7933 14.9496
upperneck -6.90801 8.08126 -21.9165
head -1.86967 4.63625 -9.64215
rclavicle 4.89507e-015 -2.94201e-014
rhumerus 27.1782 44.8729 -36.7503
rradius 89.9285
rwrist -23.8424
rhand -19.3819 19.0193
rfingers 7.12502
rthumb 6.93651 -10.847
lclavicle 4.89507e-015 -2.94201e-014
lhumerus 26.8993 13.7211 16.4654
lradius 68.2968
lwrist -3.70975
lhand -50.602 24.6412
lfingers 7.12502
lthumb -23.1668 53.2681
rfemur -8.83783 -7.06158 34.716
rtibia 35.7756
rfoot -18.6175 7.04384
rtoes 33.4867
lfemur -24.7853 -1.18495 -2.69377
ltibia 57.1642
lfoot -22.5065 -8.57374
ltoes -14.4549
1847
root -1.13715 17.3324 11.3674 0.796804 -0.483497 -12.371
lowerback 6.92226 -2.22472 7.49028
upperback -2.58761 -1.77809 7.82548
thorax -6.63677 -1.00719 4.31257
lowerneck 8.5465 5.85996 14.8655
upperneck -6.85579 8.15865 -21.7223
head -1.82081 4.65805 -9.54774
rclavicle -2.80038e-014 1.00983e-013
rhumerus 27.54 44.8243 -36.6373
rradius 89.8852
rwrist -23.8535
rhand -19.5044 18.8894
rfingers 7.12502
rthumb 6.81828 -10.9808
lclavicle -2.80038e-014 1.00983e-013
lhumerus 27.3667 14.1438 16.7598
lradius 68.1478
lwrist -3.92291
lhand -50.9315 24.1886
lfingers 7.12502
lthumb -23.4829 52.7754
rfemur -8.85736 -6.92659 34.6618
rtibia 35.934
rfoot -18.9673 6.50896
rtoes 32.0247
lfemur -24.4007 -1.91388 -2.68299
ltibia 56.255
lfoot -21.6056 -10.1951
ltoes -12.1264
1848
root -1.11646 17.3282 11.3862 0.805566 -0.62716 -12.1029
lowerback 6.45403 -2.31472 7.95835
upperback -2.26376 -1.97961 7.33302
thorax -6.0493 -1.12594 3.50373
lowerneck 8.13881 6.05783 14.8815
upperneck -6.90624 8.39986 -21.3397
head -1.73543 4.74154 -9.39521
rclavicle -3.57812e-015 9.54166e-015
rhumerus 28.1805 44.5132 -36.8938
rradius 89.8366
rwrist -23.7569
rhand -19.7006 18.9618
rfingers 7.12502
rthumb 6.62889 -10.9145
lclavicle -3.57812e-015 9.54166e-015
lhumerus 27.5138 14.5929 16.112
lradius 68.1731
lwrist -3.8313
lhand -51.3365 23.7622
lfingers 7.12502
lthumb -23.8713 52.2988
rfemur -8.90203 -6.65623 34.3699
rtibia 36.2109
rfoot -19.3215 6.10997
rtoes 31.8488
lfemur -23.9681 -2.57881 -2.94472
ltibia 55.344
lfoot -20.8452 -11.2584
ltoes -12.2692
1849
root -1.0915 17.3275 11.4131 0.801425 -0.858124 -11.8741
lowerback 6.52776 -2.32301 8.02444
upperback -2.35215 -1.97242 7.2062
thorax -6.19289 -1.13054 3.33988
lowerneck 8.18922 6.13528 14.807
upperneck -6.76291 8.52512 -21.2845
head -1.6863 4.80344 -9.3583
rclavicle 1.26725e-014 -2.3059e-014
rhumerus 28.3388 44.7597 -36.8372
rradius 89.8925
rwrist -23.5721
rhand -19.9741 18.766
rfingers 7.12502
rthumb 6.36484 -11.1184
lclavicle 1.26725e-014 -2.3059e-014
lhumerus 27.2082 14.4375 15.9597
lradius 68.3106
lwrist -3.69826
lhand -51.2312 24.3047
lfingers 7.12502
lthumb -23.7703 52.8545
rfemur -8.94908 -6.41346 34.0697
rtibia 36.591
rfoot -19.5968 5.99606
rtoes 32.8294
lfemur -23.4273 -3.13546 -3.21177
ltibia 54.502
lfoot -20.6055 -11.2902
ltoes -14.9209
